<svg width="30" height="36" viewBox="0 0 30 36" fill="none" xmlns="http://www.w3.org/2000/svg">
<path d="M15.0046 18.0833C15.9551 18.0833 16.7661 17.7507 17.4375 17.0854C18.1089 16.4204 18.4446 15.6126 18.4446 14.6621C18.4446 13.7115 18.11 12.9006 17.4408 12.2292C16.7719 11.5578 15.9594 11.2221 15.0033 11.2221C14.0475 11.2221 13.2385 11.5567 12.5762 12.2258C11.9143 12.8947 11.5833 13.7072 11.5833 14.6633C11.5833 15.6192 11.916 16.4282 12.5812 17.0904C13.2462 17.7524 14.054 18.0833 15.0046 18.0833ZM15 35.9029C10.1019 31.8657 6.45152 28.1782 4.04875 24.8404C1.64597 21.5024 0.44458 18.1713 0.44458 14.8471C0.44458 10.3735 1.90444 6.78751 4.82416 4.08917C7.74389 1.39084 11.1358 0.0416718 15 0.0416718C18.8564 0.0416718 22.251 1.39084 25.1837 4.08917C28.1168 6.78751 29.5833 10.3735 29.5833 14.8471C29.5833 18.1713 28.3774 21.5024 25.9654 24.8404C23.5532 28.1782 19.8981 31.8657 15 35.9029Z" fill="#EA2525"/>
</svg>
